# xmcd
#
# Track frame offsets: 
#        150
#        17487
#        32457
#        48417
#        65634
#        84272
#        100459
#        118334
#        137344
#        158559
#        183996
#        211000
#        230491
#        244465
#        251042
#        267590
#        283597
#        299701
#        314028
#
# Disc length: 4407 seconds
#
# Revision: 0
# Processed by: cddbd v1.5.2PL0 Copyright (c) Steve Scherf et al.
# Submitted via: ExactAudioCopy v0.95b3
#
DISCID=1b113513
DTITLE=The Rolling Stones  - Record Mirror, Vol. 2  1968 - 1974  [CD03
DTITLE=)
DYEAR=1900
DGENRE=
TTITLE0=Rolling Stones - Bitch
TTITLE1=Rolling Stones - Good Time Women
TTITLE2=Rolling Stones - Sway
TTITLE3=Rolling Stones - Mean Woman Blues
TTITLE4=Rolling Stones - Dead Flowers
TTITLE5=Rolling Stones - Silver Train
TTITLE6=Rolling Stones - All Down The Line
TTITLE7=Rolling Stones - Shine A Light
TTITLE8=Rolling Stones - Stop Breaking Down
TTITLE9=Rolling Stones - Loving Cup
TTITLE10=Rolling Stones - Traveling man
TTITLE11=Rolling Stones - Sweet Virginia
TTITLE12=Rolling Stones - I Don't Care
TTITLE13=Rolling Stones - Exile On Main Street Blues
TTITLE14=Rolling Stones - Hip Shake
TTITLE15=Rolling Stones - Blues Jam
TTITLE16=Rolling Stones - Hip Shake
TTITLE17=Rolling Stones - Blues Jam II
TTITLE18=Rolling Stones - Gimme A Drink
EXTD=
EXTT0=
EXTT1=
EXTT2=
EXTT3=
EXTT4=
EXTT5=
EXTT6=
EXTT7=
EXTT8=
EXTT9=
EXTT10=
EXTT11=
EXTT12=
EXTT13=
EXTT14=
EXTT15=
EXTT16=
EXTT17=
EXTT18=
PLAYORDER=
